# AST/ASF file generated using VICON BodyLanguage
# -----------------------------------------------
:version 1.10
:name VICON
:units
  mass 1.0
  length 0.45
  angle deg
:documentation
   .ast/.asf automatically generated from VICON data using
   VICON BodyBuilder and BodyLanguage model FoxedUp or BRILLIANT.MOD
:root
   order TX TY TZ RX RY RZ
   axis XYZ
   position 0 0 0  
   orientation 0 0 0 
:bonedata
  begin
     id 1 
     name lhipjoint
     direction 0.567149 -0.783011 0.255413 
     length 2.28399 
     axis 0 0 0  XYZ
  end
  begin
     id 2 
     name lfemur
     direction 0.34202 -0.939693 0  
     length 7.34031  
     axis 0 0 20  XYZ
    dof rx ry rz
    limits (-160.0 20.0)
           (-70.0 70.0)
           (-60.0 70.0)
  end
  begin
     id 3 
     name ltibia
     direction 0.34202 -0.939693 0   
     length 6.9833   
     axis 0 0 20   XYZ
    dof rx
    limits (-10.0 170.0)
  end
  begin
     id 4 
     name lfoot
     direction 0.136498 -0.375025 0.91691   
     length 2.33665   
     axis -90 7.62852e-016 20   XYZ
    dof rx rz
    limits (-45.0 90.0)
           (-70.0 20.0)
  end
  begin
     id 5 
     name ltoes
     direction 1.5367e-011 -4.21617e-011 1   
     length 1.15039   
     axis -90 7.62852e-016 20   XYZ
    dof rx
    limits (-90.0 20.0)
  end
  begin
     id 6 
     name rhipjoint
     direction -0.602854 -0.758518 0.247423   
     length 2.35775  
     axis 0 0 0  XYZ 
  end
  begin
     id 7 
     name rfemur
     direction -0.34202 -0.939693 0   
     length 7.43932   
     axis 0 0 -20   XYZ
    dof rx ry rz
    limits (-160.0 20.0)
           (-70.0 70.0)
           (-70.0 60.0)
  end
  begin
     id 8 
     name rtibia
     direction -0.34202 -0.939693 0   
     length 7.11893   
     axis 0 0 -20   XYZ
    dof rx
    limits (-10.0 170.0)
 end
 begin
     id 9 
     name rfoot
     direction -0.131771 -0.362037 0.922803   
     length 2.53019  
     axis -90 -7.62852e-016 -20   XYZ
    dof rx rz
    limits (-45.0 90.0)
           (-20.0 70.0)
  end
  begin
     id 10 
     name rtoes
     direction -1.53733e-011 -4.21932e-011 1   
     length 1.24596   
     axis -90 -7.62852e-016 -20   XYZ
    dof rx
    limits (-90.0 20.0)
  end
  begin
     id 11 
     name lowerback
     direction 0.0235427 0.999023 -0.0374125   
     length 2.21768   
     axis 0 0 0   XYZ
    dof rx ry rz
    limits (-20.0 45.0)
           (-30.0 30.0)
           (-30.0 30.0)
  end
  begin
     id 12 
     name upperback
     direction 0.0302156 0.996818 -0.073759   
     length 2.20352   
     axis 0 0 0   XYZ
    dof rx ry rz
    limits (-20.0 45.0)
           (-30.0 30.0)
           (-30.0 30.0)
  end
  begin
     id 13 
     name thorax
     direction 0.0187169 0.998235 -0.0563532   
     length 2.22103   
     axis 0 0 0   XYZ
    dof rx ry rz
    limits (-20.0 45.0)
           (-30.0 30.0)
           (-30.0 30.0)
  end
  begin
     id 14 
     name lowerneck
     direction -0.119528 0.987423 0.103481   
     length 1.72948   
     axis 0 0 0   XYZ
    dof rx ry rz
    limits (-20.0 45.0)
           (-30.0 30.0)
           (-30.0 30.0)
  end
  begin
     id 15 
     name upperneck
     direction 0.248049 0.963095 -0.104496   
     length 1.74979   
     axis 0 0 0   XYZ
    dof rx ry rz
    limits (-20.0 45.0)
           (-30.0 30.0)
           (-30.0 30.0)
  end
  begin
     id 16
     name head
     direction 0.0903589 0.994284 -0.056876  
     length 1.78268  
     axis 0 0 0   XYZ
    dof rx ry rz
    limits (-20.0 45.0)
           (-30.0 30.0)
           (-30.0 30.0)
  end
  begin
     id 17 
     name lclavicle
     direction 0.946008 0.242039 -0.215608  
     length 3.80783  
     axis 0 0 0   XYZ
    dof ry rz
    limits (-20.0 10.0)
           (0.0 20.0)
  end
  begin
     id 18 
     name lhumerus
     direction 1 -4.48991e-011 -2.25695e-027   
     length 4.83125   
     axis 180 -30 -90   XYZ
    dof rx ry rz
    limits (-60.0 90.0)
           (-90.0 90.0)
           (-90.0 90.0)
  end
  begin
     id 19
     name lradius
     direction 0.999991 0.00366712 -0.00211721   
     length 3.00391   
     axis 180 -30 -90   XYZ
    dof rx
    limits (-10.0 170.0)
  end
  begin
     id 20
     name lwrist
     direction 0.999991 0.00393016 -0.00141978   
     length 1.50195   
     axis -1.00488e-014 90 90   XYZ
    dof ry
    limits (-180.0 0.0)
 end
  begin
     id 21 
     name lhand
     direction 1 -4.49123e-011 2.72098e-026   
     length 1.2717   
     axis -1.73687e-014 90 90   XYZ
    dof rx rz
    limits (-90.0 90.0)
           (-45.0 45.0)
  end
  begin
     id 22 
     name lfingers
     direction 1 -4.48678e-011 5.4479e-026   
     length 1.02528   
     axis -3.47372e-014 90 90   XYZ
    dof rx
    limits (0.0 90.0)
  end
  begin
     id 23
     name lthumb
     direction 0.707107 -6.34851e-011 0.707107   
     length 1.4721   
     axis -90 45 -1.62303e-014   XYZ
    dof rx rz
    limits (-45.0 45.0)
           (-45.0 45.0)
  end
  begin
     id 24 
     name rclavicle
     direction -0.981723 0.189447 -0.0181673   
     length 3.74989  
     axis 0 0 0   XYZ 
    dof ry rz
    limits (-10.0 20.0)
           (-20.0 0.0)
  end
  begin
     id 25 
     name rhumerus
     direction -1 -4.48985e-011 2.38206e-027  
     length 4.61118   
     axis 180 30 90   XYZ
    dof rx ry rz
    limits (-90.0 60.0)
           (-90.0 90.0)
           (-90.0 90.0)
  end
  begin
     id 26 
     name rradius
     direction -1 -4.48977e-011 7.41019e-027   
     length 2.91491   
     axis 180 30 90   XYZ
    dof rx
    limits (-10.0 170.0)
  end
  begin
     id 27 
     name rwrist
     direction -1 -4.48549e-011 1.3624e-026   
     length 1.45745   
     axis -1.00488e-014 -90 -90   XYZ
    dof ry
    limits (-180.0 0.0)
  end
  begin
     id 28
     name rhand
     direction -1 -4.49107e-011 2.72109e-026   
     length 1.30769   
     axis -1.73687e-014 -90 -90   XYZ
    dof rx rz
    limits (-90.0 90.0)
           (-45.0 45.0)
  end
  begin
     id 29
     name rfingers
     direction -1 -4.48919e-011 5.44468e-026   
     length 1.05429   
     axis -3.47372e-014 -90 -90   XYZ
    dof rx
    limits (0.0 90.0)
  end
  begin
     id 30
     name rthumb
     direction -0.707107 -6.35315e-011 0.707107   
     length 1.51376   
     axis -90 -45 1.62303e-014   XYZ
    dof rx rz
    limits (-45.0 45.0)
           (-45.0 45.0)
  end
:hierarchy
  begin
    root lhipjoint rhipjoint lowerback
    lhipjoint lfemur
    lfemur ltibia
    ltibia lfoot
    lfoot ltoes
    rhipjoint rfemur
    rfemur rtibia
    rtibia rfoot
    rfoot rtoes
    lowerback upperback
    upperback thorax
    thorax lowerneck lclavicle rclavicle
    lowerneck upperneck
    upperneck head
    lclavicle lhumerus
    lhumerus lradius
    lradius lwrist
    lwrist lhand lthumb
    lhand lfingers
    rclavicle rhumerus
    rhumerus rradius
    rradius rwrist
    rwrist rhand rthumb
    rhand rfingers
  end

#!OML:ASF X:\für Bonn\!DataBase\2005_08_11_Bastian_Final\c3d\Bastian.ASF
:FULLY-SPECIFIED
:DEGREES
18
root 0.289792 17.6443 2.52576 170.696 -0.6871 -175.556
lowerback 17.8638 0.0676693 5.07023
upperback 9.43313 -0.896092 -0.695464
thorax 0.099112 -0.988534 -3.44874
lowerneck -15.7336 -6.35302 0.615037
upperneck 0.0198693 -9.93453 10.7532
head 3.06449 -4.82007 2.43221
rclavicle -3.18055e-015 7.15625e-015
rhumerus 45.6577 40.1948 -61.6884
rradius 35.2504
rwrist -53.5844
rhand -45.5627 -14.537
rfingers 7.12502
rthumb -18.325 -43.6939
lclavicle -3.18055e-015 7.15625e-015
lhumerus -312.288 -59.2646 418.694
lradius 37.6624
lwrist 46.8683
lhand -44.5583 20.3124
lfingers 7.12502
lthumb -17.3586 49.5573
rfemur 0.544863 2.58708 24.7641
rtibia 31.9562
rfoot -14.5674 -7.52154
rtoes -4.96248
lfemur 3.6405 4.4621 -14.0433
ltibia 27.0074
lfoot -11.155 -3.91165
ltoes -17.5514
19
root 0.297788 17.6644 2.49033 170.446 -0.616695 -175.408
lowerback 17.0939 0.0652895 5.12947
upperback 9.22989 -0.830135 -0.679294
thorax 0.281319 -0.913445 -3.4823
lowerneck -14.8832 -6.47118 0.364364
upperneck 1.01034 -10.011 10.7859
head 3.25231 -4.79073 2.48169
rclavicle -1.55052e-014 -3.33958e-014
rhumerus 49.383 38.3993 -59.3806
rradius 35.3541
rwrist -49.6743
rhand -44.2482 -15.4443
rfingers 7.12502
rthumb -17.0602 -44.7152
lclavicle -1.55052e-014 -3.33958e-014
lhumerus -305.707 -58.003 413.022
lradius 39.1744
lwrist 48.3879
lhand -44.491 21.5796
lfingers 7.12502
lthumb -17.2939 50.8302
rfemur 1.02022 2.68401 24.9551
rtibia 31.7935
rfoot -14.2877 -7.39999
rtoes -4.66136
lfemur 3.98788 4.18834 -13.8513
ltibia 27.0953
lfoot -10.9755 -3.7106
ltoes -17.8659
20
root 0.30534 17.6856 2.45234 170.116 -0.56184 -175.281
lowerback 16.4477 0.0569901 5.19221
upperback 9.02518 -0.774952 -0.675003
thorax 0.399898 -0.84866 -3.52612
lowerneck -14.0198 -6.56486 0.139039
upperneck 1.94169 -10.0815 10.8094
head 3.41627 -4.77299 2.52765
rclavicle -6.75868e-015 -1.43125e-014
rhumerus 52.7259 36.3118 -57.2401
rradius 35.4837
rwrist -46.4356
rhand -43.2921 -15.41
rfingers 7.12502
rthumb -16.1396 -44.758
lclavicle -6.75868e-015 -1.43125e-014
lhumerus -300.202 -56.1746 408.143
lradius 40.7592
lwrist 49.7526
lhand -44.3918 22.9969
lfingers 7.12502
lthumb -17.1983 52.2559
rfemur 1.5559 2.67638 25.0935
rtibia 31.684
rfoot -13.9907 -7.16775
rtoes -4.44549
lfemur 4.42682 3.88735 -13.6802
ltibia 27.1847
lfoot -10.807 -3.52082
ltoes -18.1943
21
root 0.313938 17.7074 2.41058 169.743 -0.502466 -175.177
lowerback 15.9267 0.0463769 5.22985
upperback 8.77716 -0.717807 -0.68578
thorax 0.40859 -0.786555 -3.56914
lowerneck -13.1434 -6.63218 -0.00829877
upperneck 2.82205 -10.1425 10.7621
head 3.55233 -4.76487 2.54366
rclavicle 1.78906e-015 0
rhumerus 55.6152 34.0374 -55.2925
rradius 35.7431
rwrist -44.2414
rhand -42.866 -14.2951
rfingers 7.12502
rthumb -15.7293 -43.6759
lclavicle 1.78906e-015 0
lhumerus -295.895 -53.9714 404.113
lradius 42.3859
lwrist 50.765
lhand -44.3373 24.2687
lfingers 7.12502
lthumb -17.1459 53.5322
rfemur 2.11651 2.61157 25.1896
rtibia 31.6384
rfoot -13.6958 -6.85894
rtoes -4.13108
lfemur 4.94047 3.633 -13.5207
ltibia 27.2495
lfoot -10.6055 -3.37575
ltoes -18.5747
22
root 0.322764 17.7288 2.36479 169.38 -0.462433 -175.047
lowerback 15.4077 0.0116243 5.28687
upperback 8.48182 -0.680807 -0.682819
thorax 0.365497 -0.733089 -3.60438
lowerneck -12.1054 -6.68132 -0.181547
upperneck 3.56969 -10.1775 10.7152
head 3.62007 -4.76351 2.57445
rclavicle -4.17448e-015 -4.77083e-015
rhumerus 58.0792 31.7049 -53.4379
rradius 36.2242
rwrist -43.2652
rhand -42.9782 -12.2613
rfingers 7.12502
rthumb -15.8373 -41.6336
lclavicle -4.17448e-015 -4.77083e-015
lhumerus -292.357 -51.5095 400.331
lradius 43.9163
lwrist 51.5998
lhand -44.4235 24.8527
lfingers 7.12502
lthumb -17.2288 54.109
rfemur 2.65012 2.36288 25.2586
rtibia 31.6325
rfoot -13.3882 -6.41825
rtoes -3.73926
lfemur 5.45883 3.37191 -13.3273
ltibia 27.2953
lfoot -10.3867 -3.2533
ltoes -18.9187
23
root 0.331736 17.7499 2.31367 169.003 -0.446342 -174.94
lowerback 14.832 -0.030714 5.34007
upperback 8.18865 -0.659056 -0.701128
thorax 0.354924 -0.686211 -3.658
lowerneck -10.8507 -6.69887 -0.344738
upperneck 4.10456 -10.1717 10.704
head 3.58533 -4.76596 2.62935
rclavicle -5.36719e-015 -1.66979e-014
rhumerus 60.1282 29.2841 -51.6852
rradius 37.0156
rwrist -43.3816
rhand -43.3586 -9.80582
rfingers 7.12502
rthumb -16.2037 -39.1486
lclavicle -5.36719e-015 -1.66979e-014
lhumerus -289.543 -48.8161 396.812
lradius 45.2269
lwrist 51.9106
lhand -44.5622 24.4978
lfingers 7.12502
lthumb -17.3623 53.7423
rfemur 3.19921 2.06805 25.2841
rtibia 31.6595
rfoot -13.0785 -5.93055
rtoes -3.48105
lfemur 6.01676 3.14829 -13.1469
ltibia 27.3174
lfoot -10.1522 -3.18725
ltoes -19.2487
24
root 0.341485 17.7715 2.25785 168.622 -0.439647 -174.837
lowerback 14.2373 -0.0807411 5.35853
upperback 7.85799 -0.646941 -0.705632
thorax 0.315188 -0.64491 -3.67557
lowerneck -9.35459 -6.68456 -0.534483
upperneck 4.50282 -10.1207 10.7122
head 3.46726 -4.76589 2.70912
rclavicle 7.95139e-016 7.95139e-016
rhumerus 61.8116 26.8371 -50.1314
rradius 37.9261
rwrist -44.2696
rhand -43.7689 -7.17733
rfingers 7.12502
rthumb -16.5987 -36.4875
lclavicle 7.95139e-016 7.95139e-016
lhumerus -287.362 -46.0106 393.598
lradius 46.115
lwrist 51.4515
lhand -44.7973 23.0977
lfingers 7.12502
lthumb -17.5886 52.3221
rfemur 3.76556 1.79592 25.3063
rtibia 31.6948
rfoot -12.7482 -5.45677
rtoes -3.1955
lfemur 6.58876 2.91742 -12.9779
ltibia 27.3318
lfoot -9.85742 -3.13518
ltoes -19.9346
25
root 0.352048 17.7941 2.19852 168.297 -0.454653 -174.735
lowerback 13.5639 -0.144278 5.37084
upperback 7.5099 -0.654904 -0.702515
thorax 0.299042 -0.612401 -3.67945
lowerneck -7.69239 -6.65061 -0.819538
upperneck 4.77184 -10.0449 10.7997
head 3.28815 -4.76983 2.83802
rclavicle -2.28602e-015 -7.15625e-015
rhumerus 63.2502 24.2587 -48.7403
rradius 38.9196
rwrist -45.5294
rhand -43.9269 -5.00414
rfingers 7.12502
rthumb -16.7508 -34.3015
lclavicle -2.28602e-015 -7.15625e-015
lhumerus -285.92 -43.1552 390.999
lradius 46.2892
lwrist 49.7969
lhand -44.9195 20.39
lfingers 7.12502
lthumb -17.7062 49.6038
rfemur 4.26809 1.53686 25.3289
rtibia 31.739
rfoot -12.3786 -5.03413
rtoes -2.97036
lfemur 7.10284 2.71537 -12.7966
ltibia 27.3349
lfoot -9.47269 -3.12448
ltoes -20.4774
26
root 0.363472 17.8184 2.13573 168.058 -0.494663 -174.582
lowerback 12.8355 -0.225875 5.43244
upperback 7.10889 -0.676006 -0.696868
thorax 0.258015 -0.583572 -3.70704
lowerneck -5.86751 -6.59493 -1.15173
upperneck 4.72984 -9.92241 10.6753
head 3.28298 -4.79985 3.25457
rclavicle -6.4605e-015 -3.33958e-014
rhumerus 64.9172 21.6554 -46.5921
rradius 39.7561
rwrist -47.7021
rhand -44.0541 -3.39484
rfingers 7.12502
rthumb -16.8733 -32.6818
lclavicle -6.4605e-015 -3.33958e-014
lhumerus -284.909 -40.338 388.633
lradius 45.7601
lwrist 46.8923
lhand -44.9932 16.9878
lfingers 7.12502
lthumb -17.7771 46.1952
rfemur 4.6847 1.31546 25.4164
rtibia 31.7732
rfoot -11.9795 -4.6448
rtoes -2.68652
lfemur 7.51199 2.50947 -12.5599
ltibia 27.354
lfoot -9.07371 -3.14932
ltoes -21.1886
27
root 0.375071 17.8446 2.07023 167.87 -0.562516 -174.487
lowerback 12.0922 -0.308091 5.41876
upperback 6.68945 -0.709174 -0.687831
thorax 0.206917 -0.564482 -3.68749
lowerneck -3.96087 -6.52237 -1.48329
upperneck 4.80246 -9.81738 10.8097
head 2.97173 -4.81519 3.42899
rclavicle 2.78299e-015 -1.27222e-014
rhumerus 66.5755 18.9128 -44.3357
rradius 40.33
rwrist -49.8257
rhand -44.0514 -2.54049
rfingers 7.12502
rthumb -16.8707 -31.8277
lclavicle 2.78299e-015 -1.27222e-014
lhumerus -284.051 -37.4903 386.233
lradius 44.6547
lwrist 43.0088
lhand -45.186 13.4536
lfingers 7.12502
lthumb -17.9626 42.6441
rfemur 5.0455 1.01751 25.4102
rtibia 31.8063
rfoot -11.544 -4.22098
rtoes -2.53485
lfemur 7.8548 2.31194 -12.3923
ltibia 27.3866
lfoot -8.63394 -3.1932
ltoes -21.7524
28
root 0.387549 17.8716 2.00334 167.705 -0.642571 -174.364
lowerback 11.39 -0.405693 5.46429
upperback 6.25946 -0.761194 -0.703164
thorax 0.124169 -0.556693 -3.72501
lowerneck -2.0803 -6.42202 -1.78057
upperneck 4.85251 -9.70368 10.9653
head 2.66003 -4.83204 3.60608
rclavicle -4.77083e-015 -1.35174e-014
rhumerus 68.0647 16.0033 -42.727
rradius 40.3316
rwrist -51.0045
rhand -43.7553 -2.31036
rfingers 7.12502
rthumb -16.5856 -31.6216
lclavicle -4.77083e-015 -1.35174e-014
lhumerus -283.212 -34.6044 383.573
lradius 43.1701
lwrist 38.366
lhand -45.6661 10.7343
lfingers 7.12502
lthumb -18.4245 39.8817
rfemur 5.38126 0.778482 25.4548
rtibia 31.838
rfoot -11.0883 -3.85756
rtoes -2.38318
lfemur 8.1589 2.16276 -12.1691
ltibia 27.4402
lfoot -8.20197 -3.29695
ltoes -22.5021
